<svg xmlns="http://www.w3.org/2000/svg" viewBox="0 0 400 400" width="400" height="400" role="img" aria-label="Bizarro Turbo Sloth">
  <title>Bizarro Turbo Sloth</title>
  <desc>A bizarro cute turbo sloth floating gently, with giant eyes and twinkling sparkles.</desc>
  <style>
    .tur-shine { animation: turShine 3.0s ease-in-out infinite; }
    @keyframes turShine {
  0%, 100% { opacity: 1; }
  50% { opacity: 0.4; }
}
    .tur-arm-l { animation: turArmL 3.7s ease-in-out infinite; transform-box: fill-box; transform-origin: top center; }
    @keyframes turArmL {
  0%, 100% { transform: rotate(0deg); }
  50% { transform: rotate(5deg); }
}
    .tur-arm-r { animation: turArmR 3.8s ease-in-out infinite; transform-box: fill-box; transform-origin: top center; }
    @keyframes turArmR {
  0%, 100% { transform: rotate(0deg); }
  50% { transform: rotate(-5deg); }
}
    .tur-flicker { animation: turFlicker 0.8s ease-in-out infinite; transform-box: fill-box; transform-origin: center; }
    @keyframes turFlicker {
  0%, 100% { transform: scaleY(1); opacity: 0.9; }
  50% { transform: scaleY(1.2); opacity: 1; }
}
    .tur-float { animation: turFloat 4.3s ease-in-out infinite; }
    @keyframes turFloat {
  0%, 100% { transform: translateY(0) rotate(0deg); }
  50% { transform: translateY(-7px) rotate(1.2deg); }
}
    .twinkle { transform-box: fill-box; transform-origin: center; animation: turTwinkle 2.6s ease-in-out infinite; }
    .twinkle.d1 { animation-delay: -0.6s; }
    .twinkle.d2 { animation-delay: -1.3s; }
    .twinkle.d3 { animation-delay: -1.9s; }
    .twinkle.d4 { animation-delay: -2.4s; }
    .twinkle.d5 { animation-delay: -0.9s; }
    @keyframes turTwinkle {
  0%, 100% { transform: scale(0.5) rotate(0deg); opacity: 0.3; }
  50% { transform: scale(1.15) rotate(12deg); opacity: 1; }
}
    @media (prefers-reduced-motion: reduce) {
  tur-arm-l, tur-arm-r, tur-flicker, tur-float, tur-shine, twinkle { animation: none !important; }
}
  </style>
  <rect width="400" height="400" fill="#f2f9ff"/>
  <circle cx="200" cy="206" r="172" fill="#e0f2fe"/>
  <circle cx="200" cy="206" r="172" fill="none" stroke="#aedffa" stroke-width="3" stroke-linecap="round" stroke-dasharray="0.5 12"/>
<g class="tur-float">
<circle cx="138" cy="150" r="24" fill="#7dd3fc" stroke="#075985" stroke-width="3"/><circle cx="138" cy="150" r="12" fill="#bae6fd"/><circle cx="262" cy="150" r="24" fill="#7dd3fc" stroke="#075985" stroke-width="3"/><circle cx="262" cy="150" r="12" fill="#bae6fd"/>
<ellipse cx="200" cy="238" rx="98" ry="82" fill="#7dd3fc" stroke="#075985" stroke-width="3"/>
<ellipse cx="200" cy="252" rx="62" ry="46" fill="#bae6fd" opacity="0.85"/>
<circle cx="148" cy="212" r="27" fill="#ffffff"/>
<circle cx="148" cy="212" r="16" fill="#0ea5e9"/>
<circle cx="148" cy="212" r="8" fill="#075985"/>
<circle class="tur-shine" cx="142" cy="206" r="5.5" fill="#ffffff"/>
<circle cx="252" cy="212" r="27" fill="#ffffff"/>
<circle cx="252" cy="212" r="16" fill="#0ea5e9"/>
<circle cx="252" cy="212" r="8" fill="#075985"/>
<circle class="tur-shine" cx="246" cy="206" r="5.5" fill="#ffffff"/>
<ellipse cx="123" cy="238" rx="13" ry="8" fill="#38bdf8" opacity="0.35"/>
<ellipse cx="277" cy="238" rx="13" ry="8" fill="#38bdf8" opacity="0.35"/>
<path d="M186,253 Q200,264 214,253" fill="none" stroke="#075985" stroke-width="3.5" stroke-linecap="round"/>
<g class="tur-arm-l"><rect x="104" y="186" width="24" height="112" rx="12" fill="#38bdf8" stroke="#075985" stroke-width="3"/></g><g class="tur-arm-r"><rect x="272" y="186" width="24" height="112" rx="12" fill="#38bdf8" stroke="#075985" stroke-width="3"/></g>
<rect x="140" y="306" width="34" height="26" rx="9" fill="#38bdf8" stroke="#075985" stroke-width="3"/><g class="tur-flicker"><path d="M150,332 C145,342 147,350 154,356 C161,350 162,342 157,332 Z" fill="#38bdf8"/></g><rect x="230" y="306" width="34" height="26" rx="9" fill="#38bdf8" stroke="#075985" stroke-width="3"/><g class="tur-flicker"><path d="M240,332 C235,342 237,350 244,356 C251,350 252,342 247,332 Z" fill="#38bdf8"/></g>
</g>
<g transform="translate(48,292) scale(1.15)"><path class="twinkle" d="M0,-14 C2,-4 4,-2 14,0 C4,2 2,4 0,14 C-2,4 -4,2 -14,0 C-4,-2 -2,-4 0,-14 Z" fill="#ffffff"/></g>
<g transform="translate(88,204) scale(0.95)"><path class="twinkle d1" d="M0,-14 C2,-4 4,-2 14,0 C4,2 2,4 0,14 C-2,4 -4,2 -14,0 C-4,-2 -2,-4 0,-14 Z" fill="#ff9ff3"/></g>
<g transform="translate(110,118) scale(1.05)"><path class="twinkle d2" d="M0,-14 C2,-4 4,-2 14,0 C4,2 2,4 0,14 C-2,4 -4,2 -14,0 C-4,-2 -2,-4 0,-14 Z" fill="#c8a2ff"/></g>
</svg>
